<svg width="1029" height="259" viewBox="0 0 1029 259" fill="none" xmlns="http://www.w3.org/2000/svg">
<path d="M959.964 171.056V53.4863H991.921V73.9952H992.578C994.329 66.7568 997.503 61.1269 1002.1 57.1055C1006.7 53.0842 1012.42 51.0735 1019.28 51.0735C1021.03 51.0735 1022.71 51.1832 1024.32 51.4025C1025.92 51.6219 1027.31 51.9143 1028.48 52.2799V80.466C1027.16 79.9542 1025.48 79.552 1023.44 79.2596C1021.4 78.894 1019.21 78.7112 1016.87 78.7112C1011.62 78.7112 1007.13 79.7348 1003.41 81.782C999.692 83.8293 996.846 86.827 994.876 90.7753C992.906 94.7235 991.921 99.5491 991.921 105.252V171.056H959.964Z" fill="#0D9488"/>
<path d="M902.275 173.469C890.309 173.469 880.022 171.02 871.412 166.121C862.803 161.149 856.163 154.093 851.494 144.954C846.897 135.814 844.599 124.993 844.599 112.491V112.381C844.599 99.8782 846.897 89.057 851.494 79.9176C856.163 70.705 862.694 63.6128 871.084 58.641C879.548 53.596 889.507 51.0735 900.962 51.0735C912.417 51.0735 922.303 53.5229 930.621 58.4216C939.011 63.2472 945.468 70.0835 949.992 78.9305C954.588 87.7775 956.887 98.1234 956.887 109.968V119.839H860.249V99.6588H941.784L926.571 118.523V106.239C926.571 99.3664 925.513 93.6268 923.397 89.0205C921.282 84.3411 918.327 80.8315 914.533 78.4918C910.812 76.1521 906.47 74.9823 901.509 74.9823C896.548 74.9823 892.133 76.1887 888.266 78.6015C884.473 81.0143 881.481 84.5604 879.292 89.2398C877.176 93.8461 876.118 99.5126 876.118 106.239V118.632C876.118 125.14 877.176 130.696 879.292 135.303C881.481 139.909 884.582 143.455 888.595 145.941C892.608 148.354 897.387 149.56 902.932 149.56C907.309 149.56 911.103 148.866 914.314 147.476C917.524 146.087 920.151 144.332 922.194 142.212C924.236 140.092 925.623 137.935 926.352 135.741L926.571 135.083H955.902L955.573 136.29C954.698 140.604 952.983 144.954 950.43 149.341C947.876 153.728 944.41 157.749 940.033 161.405C935.728 165.061 930.438 167.985 924.163 170.179C917.962 172.372 910.666 173.469 902.275 173.469Z" fill="#0D9488"/>
<path d="M808.908 171.056V53.4862H840.865V171.056H808.908ZM824.887 38.3513C820.071 38.3513 816.022 36.7062 812.739 33.416C809.456 30.1258 807.814 26.2141 807.814 21.6809C807.814 17.0746 809.456 13.163 812.739 9.94586C816.022 6.65566 820.071 5.01056 824.887 5.01056C829.702 5.01056 833.752 6.65566 837.035 9.94586C840.318 13.163 841.96 17.0746 841.96 21.6809C841.96 26.2141 840.318 30.1258 837.035 33.416C833.752 36.7062 829.702 38.3513 824.887 38.3513Z" fill="#0D9488"/>
<path d="M688.618 209.442V53.4863H720.575V73.9952H721.341C723.457 69.2427 726.23 65.1482 729.659 61.7118C733.161 58.2754 737.21 55.6432 741.807 53.8153C746.477 51.9874 751.584 51.0735 757.129 51.0735C767.052 51.0735 775.588 53.5229 782.738 58.4216C789.889 63.2472 795.397 70.2298 799.264 79.3692C803.131 88.5087 805.064 99.4395 805.064 112.162V112.271C805.064 124.993 803.131 135.924 799.264 145.064C795.47 154.203 790.034 161.222 782.957 166.121C775.88 171.02 767.416 173.469 757.567 173.469C752.022 173.469 746.878 172.555 742.135 170.727C737.393 168.899 733.271 166.34 729.768 163.05C726.266 159.687 723.421 155.665 721.232 150.986H720.575V209.442H688.618ZM746.622 146.928C751.949 146.928 756.545 145.539 760.412 142.76C764.279 139.909 767.271 135.888 769.386 130.696C771.502 125.505 772.56 119.363 772.56 112.271V112.162C772.56 104.996 771.502 98.818 769.386 93.6268C767.271 88.4356 764.243 84.4873 760.303 81.782C756.436 79.0037 751.876 77.6145 746.622 77.6145C741.442 77.6145 736.882 79.0402 732.942 81.8917C729.002 84.6701 725.938 88.6549 723.749 93.8461C721.56 98.9642 720.466 105.106 720.466 112.271V112.381C720.466 119.4 721.56 125.505 723.749 130.696C726.011 135.888 729.075 139.909 732.942 142.76C736.882 145.539 741.442 146.928 746.622 146.928Z" fill="#0D9488"/>
<path d="M627.427 173.469C615.534 173.469 605.246 171.02 596.564 166.121C587.882 161.222 581.169 154.203 576.427 145.064C571.684 135.924 569.313 124.993 569.313 112.271V112.052C569.313 99.4029 571.721 88.5452 576.536 79.4789C581.352 70.3395 588.101 63.3204 596.783 58.4216C605.465 53.5229 615.643 51.0735 627.317 51.0735C639.064 51.0735 649.279 53.5229 657.961 58.4216C666.716 63.2472 673.502 70.2298 678.317 79.3692C683.133 88.4356 685.54 99.3298 685.54 112.052V112.271C685.54 125.066 683.133 136.034 678.317 145.173C673.575 154.313 666.862 161.332 658.18 166.231C649.498 171.056 639.246 173.469 627.427 173.469ZM627.536 148.354C632.716 148.354 637.204 146.965 640.998 144.186C644.864 141.335 647.819 137.24 649.862 131.903C651.978 126.492 653.036 119.948 653.036 112.271V112.052C653.036 104.448 651.978 97.9772 649.862 92.6397C647.746 87.3023 644.755 83.2444 640.888 80.466C637.021 77.6145 632.498 76.1887 627.317 76.1887C622.21 76.1887 617.723 77.6145 613.856 80.466C610.062 83.2444 607.107 87.3023 604.991 92.6397C602.875 97.9772 601.817 104.448 601.817 112.052V112.271C601.817 119.948 602.839 126.492 604.882 131.903C606.998 137.24 609.989 141.335 613.856 144.186C617.723 146.965 622.283 148.354 627.536 148.354Z" fill="#0D9488"/>
<path d="M518.519 173.469C506.626 173.469 496.339 170.983 487.656 166.011C478.974 161.039 472.298 153.984 467.628 144.844C462.959 135.632 460.624 124.737 460.624 112.162V112.052C460.624 99.476 462.959 88.6549 467.628 79.5886C472.371 70.4491 479.047 63.43 487.656 58.5313C496.339 53.5594 506.517 51.0735 518.191 51.0735C528.843 51.0735 538.073 53.0842 545.879 57.1055C553.686 61.0538 559.779 66.4278 564.156 73.2275C568.607 80.0273 571.051 87.6679 571.489 96.1493V96.917H541.83L541.611 95.9299C540.663 90.3 538.255 85.6206 534.388 81.8917C530.521 78.0897 525.268 76.1887 518.628 76.1887C513.448 76.1887 508.924 77.651 505.057 80.5756C501.264 83.4271 498.309 87.5582 496.193 92.9687C494.15 98.3062 493.128 104.704 493.128 112.162V112.271C493.128 119.948 494.15 126.492 496.193 131.903C498.309 137.24 501.264 141.335 505.057 144.186C508.924 146.965 513.485 148.354 518.738 148.354C525.158 148.354 530.302 146.562 534.169 142.98C538.109 139.324 540.626 134.535 541.721 128.613L541.83 127.626H571.598V128.284C571.088 136.838 568.607 144.515 564.156 151.315C559.706 158.115 553.577 163.525 545.77 167.547C538.036 171.495 528.952 173.469 518.519 173.469Z" fill="#0D9488"/>
<path d="M397.135 173.798C384.658 173.798 373.751 171.97 364.412 168.314C355.145 164.585 347.849 159.284 342.523 152.412C337.197 145.466 334.206 137.13 333.549 127.406L333.439 125.651H364.63L364.849 126.858C365.579 130.952 367.403 134.498 370.321 137.496C373.313 140.421 377.18 142.724 381.922 144.405C386.665 146.014 392.027 146.818 398.01 146.818C404.139 146.818 409.392 146.014 413.77 144.405C418.221 142.724 421.65 140.384 424.057 137.386C426.538 134.315 427.778 130.769 427.778 126.748V126.638C427.778 121.301 425.663 117.133 421.431 114.136C417.272 111.065 410.268 108.506 400.418 106.458L383.783 103.168C368.242 100.024 356.532 94.7234 348.652 87.2656C340.772 79.8078 336.832 70.12 336.832 58.2021V58.0924C336.832 48.4412 339.422 40.0329 344.603 32.8676C349.783 25.6291 356.897 20.0358 365.944 16.0875C374.991 12.0662 385.351 10.0555 397.025 10.0555C409.21 10.0555 419.716 11.9565 428.545 15.7585C437.446 19.5605 444.377 24.9345 449.339 31.8805C454.3 38.8265 457.036 46.9058 457.547 56.1183L457.656 58.2021H426.465L426.356 56.886C425.772 52.7184 424.203 49.1723 421.65 46.2477C419.096 43.25 415.703 40.9468 411.472 39.3383C407.313 37.7297 402.497 36.9255 397.025 36.9255C391.407 36.9255 386.555 37.7663 382.469 39.448C378.384 41.0565 375.246 43.2865 373.057 46.138C370.942 48.9895 369.884 52.3163 369.884 56.1183V56.228C369.884 61.1999 372 65.2212 376.231 68.2921C380.463 71.3629 387.103 73.8123 396.15 75.6402L412.894 79.0401C423.912 81.2335 432.959 84.2678 440.036 88.143C447.113 92.0181 452.33 96.9168 455.686 102.839C459.115 108.688 460.83 115.744 460.83 124.006V124.116C460.83 134.279 458.276 143.089 453.169 150.547C448.135 157.932 440.839 163.671 431.281 167.766C421.796 171.787 410.414 173.798 397.135 173.798Z" fill="#0D9488"/>
<path d="M255.832 171.056V40.1059H210.194V12.7972H334.63V40.1059H288.883V171.056H255.832Z" fill="#0D9488"/>
<path d="M63.4066 171.2C57.5943 171.2 52.6204 169.106 48.4849 164.919C44.3494 160.732 42.2781 155.692 42.271 149.8V21.4C42.271 15.515 44.3423 10.4789 48.4849 6.2916C52.6274 2.10433 57.6013 0.00713333 63.4066 0H158.516C164.329 0 169.306 2.0972 173.449 6.2916C177.591 10.486 179.659 15.5221 179.652 21.4V149.8C179.652 155.685 177.584 160.725 173.449 164.919C169.313 169.113 164.336 171.207 158.516 171.2H63.4066ZM21.1355 214C15.3232 214 10.3494 211.906 6.21384 207.719C2.07833 203.532 0.00704517 198.492 0 192.6V42.8H21.1355V192.6H137.381V214H21.1355Z" fill="#0D9488"/>
<path d="M110.164 34.2514C81.318 34.2514 57.9067 57.7121 57.9067 86.6191C57.9067 115.526 81.318 138.987 110.164 138.987C139.01 138.987 162.421 115.526 162.421 86.6191C162.421 57.7121 139.01 34.2514 110.164 34.2514ZM134.411 69.8615C133.627 78.1356 130.231 98.2448 128.506 107.514C127.775 111.441 126.311 112.751 124.953 112.908C121.922 113.17 119.623 110.918 116.696 108.98C112.097 105.943 109.485 104.058 105.043 101.125C99.8693 97.7211 103.214 95.8358 106.192 92.7985C106.976 92.013 120.354 79.8113 120.615 78.7116C120.652 78.545 120.647 78.3721 120.601 78.2078C120.556 78.0436 120.471 77.8929 120.354 77.769C120.041 77.5071 119.623 77.6119 119.257 77.6642C118.786 77.769 111.47 82.6392 97.2042 92.2748C95.1139 93.6888 93.2326 94.4219 91.5604 94.3695C89.6791 94.3172 86.1256 93.3222 83.4605 92.4319C80.1683 91.3846 77.6077 90.8085 77.8167 88.9757C77.9213 88.0331 79.2277 87.0904 81.6838 86.0954C96.9429 79.4447 107.081 75.0459 112.15 72.9512C126.677 66.8765 129.656 65.8291 131.642 65.8291C132.06 65.8291 133.053 65.9339 133.68 66.4576C134.202 66.8765 134.359 67.4525 134.411 67.8715C134.359 68.1857 134.464 69.1283 134.411 69.8615Z" fill="white"/>
<path d="M849.16 242V191.974H868.262C873.278 191.974 877.553 192.933 881.089 194.852C884.649 196.77 887.376 199.578 889.271 203.276C891.166 206.951 892.114 211.434 892.114 216.727V216.796C892.114 222.089 891.166 226.619 889.271 230.386C887.399 234.153 884.683 237.031 881.124 239.019C877.565 241.006 873.278 242 868.262 242H849.16ZM859.63 233.333H867.014C870.134 233.333 872.769 232.709 874.918 231.461C877.068 230.213 878.686 228.364 879.772 225.914C880.881 223.464 881.436 220.437 881.436 216.831V216.762C881.436 213.272 880.87 210.325 879.737 207.921C878.628 205.518 876.999 203.703 874.849 202.479C872.7 201.23 870.088 200.606 867.014 200.606H859.63V233.333ZM911.514 242.763C907.747 242.763 904.488 241.988 901.738 240.44C898.987 238.891 896.861 236.673 895.359 233.784C893.856 230.895 893.105 227.439 893.105 223.418V223.349C893.105 219.35 893.868 215.918 895.393 213.052C896.919 210.163 899.057 207.944 901.807 206.396C904.557 204.847 907.781 204.073 911.479 204.073C915.2 204.073 918.436 204.847 921.186 206.396C923.96 207.921 926.109 210.129 927.635 213.018C929.16 215.883 929.923 219.327 929.923 223.349V223.418C929.923 227.463 929.16 230.929 927.635 233.818C926.132 236.707 924.006 238.926 921.256 240.475C918.505 242 915.258 242.763 911.514 242.763ZM911.549 234.824C913.19 234.824 914.611 234.385 915.813 233.506C917.038 232.605 917.974 231.311 918.621 229.624C919.291 227.913 919.626 225.845 919.626 223.418V223.349C919.626 220.945 919.291 218.9 918.621 217.212C917.951 215.525 917.003 214.243 915.778 213.364C914.553 212.463 913.12 212.012 911.479 212.012C909.861 212.012 908.44 212.463 907.215 213.364C906.013 214.243 905.077 215.525 904.407 217.212C903.737 218.9 903.402 220.945 903.402 223.349V223.418C903.402 225.845 903.725 227.913 904.372 229.624C905.043 231.311 905.99 232.605 907.215 233.506C908.44 234.385 909.885 234.824 911.549 234.824ZM948.595 242.763C944.828 242.763 941.569 241.977 938.818 240.405C936.068 238.834 933.953 236.603 932.474 233.714C930.995 230.802 930.255 227.359 930.255 223.383V223.349C930.255 219.373 930.995 215.953 932.474 213.087C933.976 210.198 936.091 207.979 938.818 206.431C941.569 204.859 944.793 204.073 948.491 204.073C951.865 204.073 954.789 204.709 957.262 205.98C959.735 207.228 961.665 208.927 963.051 211.076C964.461 213.226 965.235 215.641 965.374 218.322V218.564H955.979L955.91 218.252C955.609 216.473 954.847 214.994 953.622 213.815C952.397 212.613 950.733 212.012 948.629 212.012C946.989 212.012 945.556 212.474 944.331 213.399C943.129 214.3 942.193 215.606 941.523 217.316C940.875 219.004 940.552 221.026 940.552 223.383V223.418C940.552 225.845 940.875 227.913 941.523 229.624C942.193 231.311 943.129 232.605 944.331 233.506C945.556 234.385 947 234.824 948.664 234.824C950.698 234.824 952.327 234.257 953.552 233.125C954.8 231.969 955.598 230.456 955.944 228.583L955.979 228.271H965.409V228.479C965.247 231.184 964.461 233.61 963.051 235.76C961.642 237.909 959.7 239.619 957.227 240.891C954.777 242.139 951.9 242.763 948.595 242.763ZM982.036 242.763C978.615 242.763 975.703 242.266 973.299 241.272C970.896 240.278 969.012 238.903 967.648 237.146C966.308 235.367 965.499 233.31 965.222 230.976L965.187 230.664H975.067L975.137 230.976C975.46 232.432 976.188 233.564 977.321 234.373C978.453 235.182 980.025 235.586 982.036 235.586C983.33 235.586 984.428 235.436 985.329 235.136C986.23 234.812 986.924 234.361 987.409 233.784C987.918 233.206 988.172 232.513 988.172 231.704V231.669C988.172 230.675 987.814 229.878 987.097 229.277C986.381 228.676 985.109 228.167 983.284 227.751L976.974 226.434C974.57 225.926 972.56 225.198 970.942 224.25C969.347 223.279 968.145 222.089 967.336 220.679C966.527 219.246 966.123 217.605 966.123 215.756V215.722C966.123 213.341 966.759 211.284 968.03 209.551C969.301 207.817 971.104 206.477 973.438 205.529C975.795 204.559 978.546 204.073 981.689 204.073C984.971 204.073 987.756 204.605 990.044 205.668C992.355 206.708 994.123 208.118 995.348 209.897C996.596 211.677 997.255 213.653 997.324 215.826V216.172H987.998L987.964 215.895C987.802 214.555 987.178 213.445 986.092 212.567C985.029 211.666 983.561 211.215 981.689 211.215C980.533 211.215 979.528 211.377 978.673 211.7C977.818 212.024 977.159 212.486 976.697 213.087C976.234 213.665 976.003 214.358 976.003 215.167V215.202C976.003 215.826 976.154 216.392 976.454 216.9C976.778 217.386 977.309 217.813 978.049 218.183C978.788 218.553 979.782 218.876 981.03 219.154L987.34 220.506C991.246 221.315 994.042 222.528 995.729 224.146C997.44 225.764 998.295 227.936 998.295 230.664V230.698C998.295 233.125 997.601 235.24 996.215 237.042C994.828 238.845 992.91 240.255 990.46 241.272C988.033 242.266 985.225 242.763 982.036 242.763Z" fill="#0D9488"/>
</svg>
