<svg width="1029" height="259" viewBox="0 0 1029 259" fill="none" xmlns="http://www.w3.org/2000/svg">
<path d="M959.964 171.056V53.4864H991.921V73.9954H992.578C994.329 66.7569 997.503 61.127 1002.1 57.1056C1006.7 53.0843 1012.42 51.0736 1019.28 51.0736C1021.03 51.0736 1022.71 51.1833 1024.32 51.4026C1025.92 51.622 1027.31 51.9144 1028.48 52.28V80.4661C1027.16 79.9543 1025.48 79.5521 1023.44 79.2597C1021.4 78.8941 1019.21 78.7113 1016.87 78.7113C1011.62 78.7113 1007.13 79.7349 1003.41 81.7822C999.692 83.8294 996.846 86.8271 994.876 90.7754C992.906 94.7236 991.921 99.5493 991.921 105.252V171.056H959.964Z" fill="white"/>
<path d="M902.275 173.469C890.309 173.469 880.022 171.02 871.412 166.121C862.803 161.149 856.163 154.094 851.494 144.954C846.897 135.815 844.599 124.993 844.599 112.491V112.381C844.599 99.8783 846.897 89.0572 851.494 79.9177C856.163 70.7052 862.694 63.6129 871.084 58.6411C879.548 53.5961 889.507 51.0736 900.962 51.0736C912.417 51.0736 922.303 53.523 930.621 58.4217C939.011 63.2474 945.468 70.0837 949.992 78.9307C954.588 87.7776 956.887 98.1235 956.887 109.968V119.839H860.249V99.6589H941.784L926.571 118.523V106.239C926.571 99.3665 925.513 93.6269 923.397 89.0206C921.282 84.3412 918.327 80.8317 914.533 78.492C910.812 76.1523 906.47 74.9824 901.509 74.9824C896.548 74.9824 892.133 76.1888 888.267 78.6016C884.473 81.0145 881.481 84.5606 879.292 89.24C877.176 93.8462 876.118 99.5127 876.118 106.239V118.632C876.118 125.14 877.176 130.697 879.292 135.303C881.481 139.909 884.582 143.455 888.595 145.941C892.608 148.354 897.387 149.56 902.932 149.56C907.309 149.56 911.103 148.866 914.314 147.477C917.524 146.087 920.151 144.333 922.194 142.212C924.236 140.092 925.623 137.935 926.352 135.741L926.571 135.083H955.902L955.573 136.29C954.698 140.604 952.983 144.954 950.43 149.341C947.876 153.728 944.41 157.749 940.033 161.405C935.728 165.061 930.438 167.985 924.163 170.179C917.962 172.372 910.666 173.469 902.275 173.469Z" fill="white"/>
<path d="M808.908 171.056V53.4863H840.865V171.056H808.908ZM824.887 38.3513C820.071 38.3513 816.022 36.7062 812.739 33.416C809.456 30.1258 807.814 26.2142 807.814 21.681C807.814 17.0747 809.456 13.163 812.739 9.94592C816.022 6.65572 820.071 5.01062 824.887 5.01062C829.702 5.01062 833.752 6.65572 837.035 9.94592C840.318 13.163 841.96 17.0747 841.96 21.681C841.96 26.2142 840.318 30.1258 837.035 33.416C833.752 36.7062 829.702 38.3513 824.887 38.3513Z" fill="white"/>
<path d="M688.618 209.442V53.4864H720.575V73.9954H721.341C723.457 69.2428 726.23 65.1484 729.659 61.7119C733.161 58.2755 737.21 55.6433 741.807 53.8154C746.477 51.9876 751.584 51.0736 757.129 51.0736C767.052 51.0736 775.588 53.523 782.738 58.4217C789.889 63.2474 795.397 70.2299 799.264 79.3694C803.131 88.5088 805.065 99.4396 805.065 112.162V112.271C805.065 124.994 803.131 135.924 799.264 145.064C795.47 154.203 790.034 161.222 782.957 166.121C775.88 171.02 767.416 173.469 757.567 173.469C752.022 173.469 746.878 172.555 742.135 170.727C737.393 168.899 733.271 166.34 729.768 163.05C726.266 159.687 723.421 155.666 721.232 150.986H720.575V209.442H688.618ZM746.622 146.928C751.949 146.928 756.545 145.539 760.412 142.761C764.279 139.909 767.271 135.888 769.386 130.697C771.502 125.505 772.56 119.364 772.56 112.271V112.162C772.56 104.996 771.502 98.8181 769.386 93.6269C767.271 88.4357 764.243 84.4874 760.303 81.7822C756.436 79.0038 751.876 77.6146 746.622 77.6146C741.442 77.6146 736.882 79.0403 732.942 81.8918C729.002 84.6702 725.938 88.655 723.749 93.8462C721.56 98.9643 720.466 105.106 720.466 112.271V112.381C720.466 119.4 721.56 125.505 723.749 130.697C726.011 135.888 729.075 139.909 732.942 142.761C736.882 145.539 741.442 146.928 746.622 146.928Z" fill="white"/>
<path d="M627.427 173.469C615.534 173.469 605.246 171.02 596.564 166.121C587.882 161.222 581.169 154.203 576.427 145.064C571.684 135.924 569.313 124.993 569.313 112.271V112.052C569.313 99.403 571.721 88.5454 576.536 79.479C581.352 70.3396 588.101 63.3205 596.783 58.4217C605.465 53.523 615.643 51.0736 627.317 51.0736C639.064 51.0736 649.279 53.523 657.961 58.4217C666.716 63.2474 673.502 70.2299 678.317 79.3694C683.133 88.4357 685.54 99.3299 685.54 112.052V112.271C685.54 125.067 683.133 136.034 678.317 145.173C673.575 154.313 666.862 161.332 658.18 166.231C649.498 171.056 639.246 173.469 627.427 173.469ZM627.536 148.354C632.716 148.354 637.204 146.965 640.998 144.186C644.864 141.335 647.819 137.24 649.862 131.903C651.978 126.492 653.036 119.949 653.036 112.271V112.052C653.036 104.448 651.978 97.9773 649.862 92.6398C647.746 87.3024 644.755 83.2445 640.888 80.4661C637.021 77.6146 632.498 76.1888 627.317 76.1888C622.21 76.1888 617.723 77.6146 613.856 80.4661C610.062 83.2445 607.107 87.3024 604.991 92.6398C602.875 97.9773 601.817 104.448 601.817 112.052V112.271C601.817 119.949 602.839 126.492 604.882 131.903C606.998 137.24 609.989 141.335 613.856 144.186C617.723 146.965 622.283 148.354 627.536 148.354Z" fill="white"/>
<path d="M518.519 173.469C506.626 173.469 496.339 170.983 487.656 166.011C478.974 161.039 472.298 153.984 467.628 144.844C462.959 135.632 460.624 124.738 460.624 112.162V112.052C460.624 99.4761 462.959 88.655 467.628 79.5887C472.371 70.4492 479.047 63.4301 487.656 58.5314C496.339 53.5595 506.517 51.0736 518.191 51.0736C528.843 51.0736 538.073 53.0843 545.879 57.1056C553.686 61.0539 559.779 66.4279 564.156 73.2276C568.607 80.0274 571.051 87.668 571.489 96.1494V96.9171H541.83L541.611 95.93C540.663 90.3001 538.255 85.6207 534.388 81.8918C530.521 78.0898 525.268 76.1888 518.628 76.1888C513.448 76.1888 508.924 77.6511 505.057 80.5758C501.264 83.4273 498.309 87.5583 496.193 92.9689C494.15 98.3063 493.128 104.704 493.128 112.162V112.271C493.128 119.949 494.15 126.492 496.193 131.903C498.309 137.24 501.264 141.335 505.057 144.186C508.924 146.965 513.485 148.354 518.738 148.354C525.158 148.354 530.302 146.563 534.169 142.98C538.109 139.324 540.626 134.535 541.721 128.613L541.83 127.626H571.598V128.284C571.088 136.838 568.607 144.515 564.156 151.315C559.706 158.115 553.577 163.525 545.77 167.547C538.036 171.495 528.952 173.469 518.519 173.469Z" fill="white"/>
<path d="M397.135 173.798C384.658 173.798 373.751 171.97 364.412 168.314C355.145 164.585 347.849 159.285 342.523 152.412C337.197 145.466 334.206 137.13 333.549 127.406L333.439 125.651H364.63L364.849 126.858C365.579 130.952 367.403 134.498 370.321 137.496C373.313 140.421 377.18 142.724 381.922 144.405C386.665 146.014 392.027 146.818 398.01 146.818C404.139 146.818 409.392 146.014 413.77 144.405C418.221 142.724 421.65 140.384 424.057 137.386C426.538 134.316 427.778 130.769 427.778 126.748V126.638C427.778 121.301 425.663 117.133 421.431 114.136C417.272 111.065 410.268 108.506 400.418 106.458L383.783 103.168C368.242 100.024 356.532 94.7234 348.652 87.2656C340.772 79.8078 336.832 70.12 336.832 58.2022V58.0925C336.832 48.4412 339.422 40.0329 344.603 32.8676C349.783 25.6292 356.897 20.0358 365.944 16.0876C374.991 12.0662 385.351 10.0555 397.025 10.0555C409.21 10.0555 419.716 11.9565 428.545 15.7586C437.446 19.5606 444.377 24.9346 449.339 31.8806C454.3 38.8265 457.036 46.9058 457.547 56.1184L457.656 58.2022H426.465L426.356 56.8861C425.772 52.7185 424.203 49.1724 421.65 46.2478C419.096 43.25 415.703 40.9469 411.472 39.3383C407.313 37.7298 402.497 36.9255 397.025 36.9255C391.407 36.9255 386.555 37.7664 382.469 39.448C378.384 41.0566 375.246 43.2866 373.057 46.1381C370.942 48.9896 369.884 52.3164 369.884 56.1184V56.2281C369.884 61.1999 372 65.2213 376.231 68.2921C380.463 71.363 387.103 73.8124 396.15 75.6403L412.894 79.0401C423.912 81.2336 432.959 84.2679 440.036 88.143C447.113 92.0182 452.33 96.9169 455.686 102.839C459.115 108.689 460.83 115.744 460.83 124.006V124.116C460.83 134.279 458.276 143.089 453.169 150.547C448.135 157.932 440.839 163.671 431.281 167.766C421.796 171.787 410.414 173.798 397.135 173.798Z" fill="white"/>
<path d="M255.832 171.056V40.1059H210.194V12.7972H334.63V40.1059H288.883V171.056H255.832Z" fill="white"/>
<path d="M63.4066 171.2C57.5943 171.2 52.6204 169.106 48.4849 164.919C44.3494 160.732 42.2781 155.692 42.271 149.8V21.4C42.271 15.515 44.3423 10.4789 48.4849 6.2916C52.6274 2.10433 57.6013 0.00713333 63.4066 0H158.516C164.329 0 169.306 2.0972 173.449 6.2916C177.591 10.486 179.659 15.5221 179.652 21.4V149.8C179.652 155.685 177.584 160.725 173.449 164.919C169.313 169.113 164.336 171.207 158.516 171.2H63.4066ZM21.1355 214C15.3232 214 10.3494 211.906 6.21384 207.719C2.07833 203.532 0.00704517 198.492 0 192.6V42.8H21.1355V192.6H137.381V214H21.1355Z" fill="white"/>
<path d="M110.164 34.2513C81.318 34.2513 57.9067 57.7121 57.9067 86.6191C57.9067 115.526 81.318 138.987 110.164 138.987C139.01 138.987 162.421 115.526 162.421 86.6191C162.421 57.7121 139.01 34.2513 110.164 34.2513ZM134.411 69.8614C133.627 78.1355 130.231 98.2447 128.506 107.514C127.775 111.441 126.311 112.751 124.953 112.908C121.922 113.17 119.623 110.918 116.696 108.98C112.097 105.943 109.485 104.058 105.043 101.125C99.8693 97.721 103.214 95.8358 106.192 92.7985C106.976 92.0129 120.354 79.8113 120.615 78.7115C120.652 78.545 120.647 78.372 120.601 78.2078C120.556 78.0435 120.471 77.8929 120.354 77.7689C120.041 77.5071 119.623 77.6118 119.257 77.6642C118.786 77.7689 111.47 82.6391 97.2042 92.2748C95.1139 93.6887 93.2326 94.4219 91.5604 94.3695C89.6791 94.3171 86.1256 93.3221 83.4605 92.4319C80.1683 91.3845 77.6077 90.8085 77.8167 88.9756C77.9213 88.033 79.2277 87.0904 81.6838 86.0954C96.9429 79.4447 107.081 75.0458 112.15 72.9511C126.677 66.8764 129.656 65.8291 131.642 65.8291C132.06 65.8291 133.053 65.9338 133.68 66.4575C134.202 66.8764 134.359 67.4525 134.411 67.8714C134.359 68.1856 134.464 69.1282 134.411 69.8614Z" fill="#C3C3C3"/>
<path d="M843.16 242V191.974H862.262C867.278 191.974 871.553 192.933 875.089 194.852C878.649 196.77 881.376 199.578 883.271 203.276C885.166 206.951 886.114 211.434 886.114 216.727V216.796C886.114 222.089 885.166 226.619 883.271 230.386C881.399 234.153 878.683 237.031 875.124 239.019C871.565 241.006 867.278 242 862.262 242H843.16ZM853.63 233.333H861.014C864.134 233.333 866.769 232.709 868.918 231.461C871.068 230.213 872.686 228.364 873.772 225.914C874.881 223.464 875.436 220.437 875.436 216.831V216.762C875.436 213.272 874.87 210.325 873.737 207.921C872.628 205.518 870.999 203.703 868.849 202.479C866.7 201.23 864.088 200.606 861.014 200.606H853.63V233.333ZM905.514 242.763C901.747 242.763 898.488 241.988 895.738 240.44C892.987 238.891 890.861 236.673 889.359 233.784C887.856 230.895 887.105 227.439 887.105 223.418V223.349C887.105 219.35 887.868 215.918 889.393 213.052C890.919 210.163 893.057 207.944 895.807 206.396C898.557 204.847 901.781 204.073 905.479 204.073C909.2 204.073 912.436 204.847 915.186 206.396C917.96 207.921 920.109 210.129 921.635 213.018C923.16 215.883 923.923 219.327 923.923 223.349V223.418C923.923 227.463 923.16 230.929 921.635 233.818C920.132 236.707 918.006 238.926 915.256 240.475C912.505 242 909.258 242.763 905.514 242.763ZM905.549 234.824C907.19 234.824 908.611 234.385 909.813 233.506C911.038 232.605 911.974 231.311 912.621 229.624C913.291 227.913 913.626 225.845 913.626 223.418V223.349C913.626 220.945 913.291 218.9 912.621 217.212C911.951 215.525 911.003 214.243 909.778 213.364C908.553 212.463 907.12 212.012 905.479 212.012C903.861 212.012 902.44 212.463 901.215 213.364C900.013 214.243 899.077 215.525 898.407 217.212C897.737 218.9 897.402 220.945 897.402 223.349V223.418C897.402 225.845 897.725 227.913 898.372 229.624C899.043 231.311 899.99 232.605 901.215 233.506C902.44 234.385 903.885 234.824 905.549 234.824ZM942.595 242.763C938.828 242.763 935.569 241.977 932.818 240.405C930.068 238.834 927.953 236.603 926.474 233.714C924.995 230.802 924.255 227.359 924.255 223.383V223.349C924.255 219.373 924.995 215.953 926.474 213.087C927.976 210.198 930.091 207.979 932.818 206.431C935.569 204.859 938.793 204.073 942.491 204.073C945.865 204.073 948.789 204.709 951.262 205.98C953.735 207.228 955.665 208.927 957.051 211.076C958.461 213.226 959.235 215.641 959.374 218.322V218.564H949.979L949.91 218.252C949.609 216.473 948.847 214.994 947.622 213.815C946.397 212.613 944.733 212.012 942.629 212.012C940.989 212.012 939.556 212.474 938.331 213.399C937.129 214.3 936.193 215.606 935.523 217.316C934.875 219.004 934.552 221.026 934.552 223.383V223.418C934.552 225.845 934.875 227.913 935.523 229.624C936.193 231.311 937.129 232.605 938.331 233.506C939.556 234.385 941 234.824 942.664 234.824C944.698 234.824 946.327 234.257 947.552 233.125C948.8 231.969 949.598 230.456 949.944 228.583L949.979 228.271H959.409V228.479C959.247 231.184 958.461 233.61 957.051 235.76C955.642 237.909 953.7 239.619 951.227 240.891C948.777 242.139 945.9 242.763 942.595 242.763ZM976.036 242.763C972.615 242.763 969.703 242.266 967.299 241.272C964.896 240.278 963.012 238.903 961.648 237.146C960.308 235.367 959.499 233.31 959.222 230.976L959.187 230.664H969.067L969.137 230.976C969.46 232.432 970.188 233.564 971.321 234.373C972.453 235.182 974.025 235.586 976.036 235.586C977.33 235.586 978.428 235.436 979.329 235.136C980.23 234.812 980.924 234.361 981.409 233.784C981.918 233.206 982.172 232.513 982.172 231.704V231.669C982.172 230.675 981.814 229.878 981.097 229.277C980.381 228.676 979.109 228.167 977.284 227.751L970.974 226.434C968.57 225.926 966.56 225.198 964.942 224.25C963.347 223.279 962.145 222.089 961.336 220.679C960.527 219.246 960.123 217.605 960.123 215.756V215.722C960.123 213.341 960.759 211.284 962.03 209.551C963.301 207.817 965.104 206.477 967.438 205.529C969.795 204.559 972.546 204.073 975.689 204.073C978.971 204.073 981.756 204.605 984.044 205.668C986.355 206.708 988.123 208.118 989.348 209.897C990.596 211.677 991.255 213.653 991.324 215.826V216.172H981.998L981.964 215.895C981.802 214.555 981.178 213.445 980.092 212.567C979.029 211.666 977.561 211.215 975.689 211.215C974.533 211.215 973.528 211.377 972.673 211.7C971.818 212.024 971.159 212.486 970.697 213.087C970.234 213.665 970.003 214.358 970.003 215.167V215.202C970.003 215.826 970.154 216.392 970.454 216.9C970.778 217.386 971.309 217.813 972.049 218.183C972.788 218.553 973.782 218.876 975.03 219.154L981.34 220.506C985.246 221.315 988.042 222.528 989.729 224.146C991.44 225.764 992.295 227.936 992.295 230.664V230.698C992.295 233.125 991.601 235.24 990.215 237.042C988.828 238.845 986.91 240.255 984.46 241.272C982.033 242.266 979.225 242.763 976.036 242.763Z" fill="white"/>
</svg>
